<?xml version="1.0" encoding="utf-8"?>
<!-- Generator: Adobe Illustrator 21.0.0, SVG Export Plug-In . SVG Version: 6.00 Build 0)  -->
<svg version="1.1" id="Layer_1" xmlns="http://www.w3.org/2000/svg" xmlns:xlink="http://www.w3.org/1999/xlink" x="0px" y="0px"
	 viewBox="0 0 512 512" style="enable-background:new 0 0 512 512;" xml:space="preserve">
<style type="text/css">
	.st0{fill:#FCFBF5;}
</style>
<g>
	<g>
		<g>
			<path class="st0" d="M256,1.8C114.8,1.8,0,116.7,0,257.8v1.5c0,3.6,1.6,6.9,4.5,9.1L23,282.8v152.5c0,6.4,5.1,11.5,11.5,11.5
				h39.1v11.5c0,28.5,23.2,51.8,51.8,51.8h8.1c28.5,0,51.8-23.2,51.8-51.8V330.1c0-28.5-23.2-51.8-51.8-51.8h-8.1
				c-28.5,0-51.8,23.2-51.8,51.8v11.5H46v-40.9l4.5,3.5c3.5,2.7,8.2,3.2,12.1,1.2c3.9-1.9,6.4-5.9,6.4-10.3v-37.2
				c0-103.1,83.9-187,187-187s187,83.9,187,187V295c0,4.4,2.5,8.4,6.4,10.3c1.6,0.8,3.3,1.2,5.1,1.2c2.5,0,5-0.8,7-2.4l4.5-3.5v40.9
				h-27.6v-11.5c0-28.5-23.2-51.8-51.8-51.8h-8.1c-28.5,0-51.8,23.2-51.8,51.8v128.3c0,28.5,23.2,51.8,51.8,51.8h8.1
				c28.5,0,51.8-23.2,51.8-51.8v-11.5h39.1c6.4,0,11.5-5.2,11.5-11.5V282.8l18.5-14.4c2.8-2.2,4.5-5.5,4.5-9.1v-1.5
				C512,116.7,397.2,1.8,256,1.8z M96.6,330.1c0-15.9,12.9-28.8,28.8-28.8h8.1c15.9,0,28.8,12.9,28.8,28.8v128.3
				c0,15.9-12.9,28.8-28.8,28.8h-8.1c-15.9,0-28.8-12.9-28.8-28.8V330.1z M415.4,353.1v105.3c0,15.9-12.9,28.8-28.8,28.8h-8.1
				c-15.9,0-28.8-12.9-28.8-28.8V330.1c0-15.9,12.9-28.8,28.8-28.8h8.1c15.9,0,28.8,12.9,28.8,28.8V353.1z M466,423.9h-27.6v-59.3
				H466V423.9z M73.6,364.6v59.3H46v-59.3L73.6,364.6L73.6,364.6z M466,271.6v-13.7c0-115.8-94.2-210-210-210
				c-115.8,0-210,94.2-210,210v13.7l-23-17.8C25.2,127.2,128.9,24.8,256,24.8c127.1,0,230.8,102.3,233,228.9L466,271.6z"/>
			<path class="st0" d="M129.4,412.1c6.4,0,11.5-5.2,11.5-11.5v-3.5c0-6.4-5.1-11.5-11.5-11.5c-6.4,0-11.5,5.2-11.5,11.5v3.5
				C117.9,407,123.1,412.1,129.4,412.1z"/>
			<path class="st0" d="M382.6,385.7c-6.4,0-11.5,5.2-11.5,11.5v3.5c0,6.4,5.1,11.5,11.5,11.5c6.4,0,11.5-5.2,11.5-11.5v-3.5
				C394.1,390.8,388.9,385.7,382.6,385.7z"/>
		</g>
	</g>
</g>
</svg>
