<?xml version="1.0" encoding="utf-8"?>
<!-- Generator: Adobe Illustrator 21.0.0, SVG Export Plug-In . SVG Version: 6.00 Build 0)  -->
<svg version="1.1" id="Layer_1" xmlns="http://www.w3.org/2000/svg" xmlns:xlink="http://www.w3.org/1999/xlink" x="0px" y="0px"
	 viewBox="0 0 512 512" style="enable-background:new 0 0 512 512;" xml:space="preserve">
<style type="text/css">
	.st0{fill:#FCFBF5;}
</style>
<g>
	<g>
		<g>
			<path class="st0" d="M364.5,116.2h-50.2V85.5h93.3c6.2,0,11.2-5,11.2-11.2V11.2c0-6.2-5-11.2-11.2-11.2H303.2
				c-6.2,0-11.2,5-11.2,11.2v63.2v41.8c0,0-143.3,0-144.6,0c-55.3,0-100.4,45-100.4,100.4V367c0,6.2,5,11.2,11.2,11.2h167.3v122.7
				c0,6.2,5,11.2,11.2,11.2h50.2c6.2,0,11.2-5,11.2-11.2V378.2h155.7c6.2,0,11.2-5,11.2-11.2V216.5
				C464.9,161.2,419.9,116.2,364.5,116.2z M314.4,22.3h82.1v40.9h-82.1V22.3z M225.5,309.7h-55.8c-6.2,0-11.2,5-11.2,11.2
				s5,11.2,11.2,11.2h55.8v23.8H69.4V216.5c0-43,35-78.1,78.1-78.1s78.1,35,78.1,78.1L225.5,309.7L225.5,309.7z M275.7,489.7h-27.9
				V378.2h27.9V489.7z M442.6,309.7h-93.3c-6.2,0-11.2,5-11.2,11.2s5,11.2,11.2,11.2h93.3v23.8H247.8V216.5
				c0-31.5-14.6-59.6-37.4-78.1h81.6v130.6c0,6.2,5,11.2,11.2,11.2c6.2,0,11.2-5,11.2-11.2V138.5h50.2c43,0,78.1,35,78.1,78.1V309.7
				z"/>
			<path class="st0" d="M169.8,182.3h-44.6c-6.2,0-11.2,5-11.2,11.2v50.2c0,6.2,5,11.2,11.2,11.2h44.6c6.2,0,11.2-5,11.2-11.2v-50.2
				C180.9,187.3,175.9,182.3,169.8,182.3z M158.6,232.5h-22.3v-27.9h22.3V232.5z"/>
			<path class="st0" d="M125.2,309.7h-12.3c-6.2,0-11.2,5-11.2,11.2s5,11.2,11.2,11.2h12.3c6.2,0,11.2-5,11.2-11.2
				S131.3,309.7,125.2,309.7z"/>
		</g>
	</g>
</g>
</svg>
