<?xml version="1.0" encoding="utf-8"?>
<!-- Generator: Adobe Illustrator 21.0.0, SVG Export Plug-In . SVG Version: 6.00 Build 0)  -->
<svg version="1.1" id="Layer_1" xmlns="http://www.w3.org/2000/svg" xmlns:xlink="http://www.w3.org/1999/xlink" x="0px" y="0px"
	 viewBox="0 0 512 512" style="enable-background:new 0 0 512 512;" xml:space="preserve">
<style type="text/css">
	.st0{fill:#FCFBF5;}
</style>
<g>
	<g>
		<g>
			<path class="st0" d="M418.3,0H117.2c-6.1,0-11.1,5-11.1,11.1v33.7H93.7c-22,0-40,17.9-40,40v388.5c0,21.3,17.4,38.7,38.7,38.7
				h309c31.4,0,57-25.6,57-57V40C458.3,17.9,440.4,0,418.3,0z M75.8,84.8c0-9.9,8-17.9,17.9-17.9h12.4v323.5c0,6.1,5,11.1,11.1,11.1
				H385v33.2H92.4c-5.8,0-11.5,1.3-16.6,3.7V84.8z M401.3,489.9h-309c-8.9,0-16.1-7-16.5-15.8c0,0-0.8-6.9,4.8-12.5
				c3.1-3.1,7.3-4.9,11.7-4.9H396c6.1,0,11.1-5,11.1-11.1v-43.7c15.9,2.6,28.2,15.9,29.1,32.5c0,0.6,0,20.6,0,20.6
				C436.2,474.3,420.6,489.9,401.3,489.9z M436.2,391.2c-9.7-7.5-21.8-11.9-34.9-11.9H128.2V22.1h290.1c9.9,0,17.9,8,17.9,17.9
				L436.2,391.2L436.2,391.2z"/>
			<path class="st0" d="M184.9,53.3c-6.1,0-11.1,5-11.1,11.1v270.9c0,6.1,5,11.1,11.1,11.1c6.1,0,11.1-5,11.1-11.1V64.3
				C195.9,58.2,191,53.3,184.9,53.3z"/>
			<path class="st0" d="M229.1,225.3c-6.1,0-11.1,5-11.1,11.1v98.8c0,6.1,5,11.1,11.1,11.1c6.1,0,11.1-5,11.1-11.1v-98.8
				C240.1,230.3,235.2,225.3,229.1,225.3z"/>
			<path class="st0" d="M273.3,225.3c-6.1,0-11.1,5-11.1,11.1v98.8c0,6.1,5,11.1,11.1,11.1c6.1,0,11.1-5,11.1-11.1v-98.8
				C284.4,230.3,279.4,225.3,273.3,225.3z"/>
			<path class="st0" d="M317.5,225.3c-6.1,0-11.1,5-11.1,11.1v98.8c0,6.1,5,11.1,11.1,11.1c6.1,0,11.1-5,11.1-11.1v-98.8
				C328.6,230.3,323.6,225.3,317.5,225.3z"/>
			<path class="st0" d="M361.8,225.3c-6.1,0-11.1,5-11.1,11.1v98.8c0,6.1,5,11.1,11.1,11.1c6.1,0,11.1-5,11.1-11.1v-98.8
				C372.8,230.3,367.9,225.3,361.8,225.3z"/>
			<path class="st0" d="M361.8,50.7H229.1c-6.1,0-11.1,5-11.1,11.1v121.6c0,6.1,5,11.1,11.1,11.1h132.7c6.1,0,11.1-5,11.1-11.1V61.7
				C372.8,55.6,367.9,50.7,361.8,50.7z M350.7,172.3H240.1V72.8h110.6L350.7,172.3L350.7,172.3z"/>
		</g>
	</g>
</g>
</svg>
